<svg xmlns="http://www.w3.org/2000/svg" version="1.1" xmlns:xlink="http://www.w3.org/1999/xlink" xmlns:svgjs="http://svgjs.dev/svgjs" width="100%" height="100%" viewBox="0 0 1000 600"><rect width="1000" height="600" x="0" y="0" fill="#ffffff"/><g><rect width="333.3333333333333" height="333.3333333333333" rx="13.333333333333334" ry="13.333333333333334" y="240.71295887365517" fill="#209cee" transform="matrix(0.5721066876414347,0,0,0.5721066876414347,0,66.93540746920485)" x="218.4906768798828"/><path d="M302.33680651392115 373.1888820944402L302.33680651392115 373.1888820944402Q307.055840856612 373.1888820944402 312.81365634392034 373.634074013562Q318.5714718312287 374.04958647140893 324.6854408538344 375.1180470773012Q330.7697304151653 376.18650768319344 335.9042772157032 378.1156726660545L335.9042772157032 378.1156726660545L333.52992031372037 389.86873933086946Q326.4958879915963 389.21579118282415 318.6901896763278 388.88931710880155Q310.8844913610593 388.5925224960537 305.3344321026745 388.5925224960537L305.3344321026745 388.5925224960537Q292.9284172898143 388.5925224960537 285.68662873876673 392.00566054265397Q278.41516072644436 395.41879858925427 275.20977890876753 403.96648343639237Q272.00439709109077 412.5141682835305 272.00439709109077 427.68037299494574L272.00439709109077 427.68037299494574Q272.00439709109077 442.8465777063609 275.20977890876753 451.5129803985982Q278.41516072644436 460.1793830908355 285.68662873876673 463.59252113743577Q292.9284172898143 467.00565918403606 305.3344321026745 467.00565918403606L305.3344321026745 467.00565918403606Q308.5398139203513 467.00565918403606 313.6743607208891 466.7979029551126Q318.80890752142693 466.59014672618906 324.6854408538344 466.1449548070673Q330.56197418624186 465.7294423492203 335.9042772157032 464.86873797225155L335.9042772157032 464.86873797225155L337.80376273728945 477.0373170949134Q329.90902603819654 479.82718645474324 320.61935465918884 481.10340328955897Q311.3296832801811 482.37962012437475 302.1290502849977 482.37962012437475L302.1290502849977 482.37962012437475Q284.1729762137527 482.37962012437475 273.2806139259065 477.0373170949134Q262.38825163806035 471.69501406545214 257.58017891154515 459.7341911717137Q252.77210618502997 447.77336827797524 252.77210618502997 427.68037299494574L252.77210618502997 427.68037299494574Q252.77210618502997 407.5873777119162 257.66921729536955 395.62655481817774Q262.5960078669839 383.66573192443934 273.48837015483 378.4421467400772Q284.38073244267616 373.1888820944402 302.33680651392115 373.1888820944402ZM482.491136451867 332.37962284161057L503.6525923407889 332.37962284161057Q511.33957281095826 332.37962284161057 511.33957281095826 340.2743595407034L511.33957281095826 340.2743595407034L517.5425802173884 479.82718645474324L498.72580176917455 479.82718645474324L493.38349873971316 347.99101947214757L488.90190008722067 347.99101947214757L455.98737753348394 456.7365655829604Q454.26596877954637 463.147329218314 447.85520514419284 463.147329218314L447.85520514419284 463.147329218314L430.99727114011483 463.147329218314Q424.349071814563 463.147329218314 422.44958629297673 456.7365655829604L422.44958629297673 456.7365655829604L389.53506373923994 347.99101947214757L385.2612213156709 347.99101947214757L380.12667451513306 479.82718645474324L361.3098960669193 479.82718645474324L367.09739101550235 340.2743595407034Q367.51290347334935 332.37962284161057 374.99212771459526 332.37962284161057L374.99212771459526 332.37962284161057L396.36133983244054 332.37962284161057Q402.3565910099471 332.37962284161057 404.28575599280816 338.7903864769642L404.28575599280816 338.7903864769642L431.8282960558088 428.748833600838Q433.54970480974634 433.67562417245233 434.7368832607377 438.5727352827919Q435.8943822504544 443.4995258544062 437.4080347754684 448.634072654944L437.4080347754684 448.634072654944L441.2366852799157 448.634072654944Q442.75033780492976 443.4995258544062 444.02655463974554 438.5727352827919Q445.30277147456127 433.67562417245233 446.7867445383006 428.333321142991L446.7867445383006 428.333321142991L474.3589640625759 338.7903864769642Q476.0803728165135 332.37962284161057 482.491136451867 332.37962284161057L482.491136451867 332.37962284161057Z " fill="#ff4523" transform="matrix(0.5721066876414347,0,0,0.5721066876414347,0,66.93540746920485)"/><path d="M680.173479367598 332.3796202335984L680.173479367598 332.3796202335984Q687.4877384719675 332.3796202335984 692.725394045128 332.70264744956427Q697.9630496182883 333.02567466553006 702.3700637789652 333.7870959603067Q706.7540045670731 334.52544388251437 711.4148258260088 335.70218588353276L711.4148258260088 335.70218588353276L709.9150566090245 346.82355146178537Q704.9312081341229 346.3159372652676 700.708780953998 345.99291004930177Q696.4632804013041 345.6698828333359 691.6409455343855 345.485295852784Q686.8186106674668 345.32378224480107 680.173479367598 345.32378224480107L680.173479367598 345.32378224480107Q669.0521137893454 345.32378224480107 662.5684960974597 349.63850291520197Q656.0848784055738 353.9762969581719 653.3622204424332 364.1055075159579Q650.6164891067235 374.234718073744 650.6164891067235 391.6781877358995L650.6164891067235 391.6781877358995Q650.6164891067235 409.121657398055 653.3622204424332 419.25086795584104Q656.0848784055738 429.3800785136271 662.5684960974597 433.717872556597Q669.0521137893454 438.03259322699785 680.173479367598 438.03259322699785L680.173479367598 438.03259322699785Q690.8103041219019 438.03259322699785 698.0322697359954 437.61727252075605Q705.2773087226578 437.2019518145143 712.2454672384924 436.20979679404775L712.2454672384924 436.20979679404775L713.7452364554767 447.1696487643174Q706.5924909590901 449.15395880525045 699.0474981290308 450.07689370801Q691.4794319264026 450.97675523820055 680.173479367598 450.97675523820055L680.173479367598 450.97675523820055Q663.745238098478 450.97675523820055 653.8467612663819 445.25455884109135Q643.9713578068547 439.53236244398215 639.5643436461778 426.56512706021044Q635.157329485501 413.5978916764388 635.157329485501 391.6781877358995L635.157329485501 391.6781877358995Q635.157329485501 369.7584837953602 639.5643436461778 356.79124841158847Q643.9713578068547 343.8240130278168 653.8467612663819 338.1018166307076Q663.745238098478 332.3796202335984 680.173479367598 332.3796202335984ZM781.8578322791316 366.089817556891L781.8578322791316 366.089817556891Q803.7775362196708 366.089817556891 803.7775362196708 388.3556220859651L803.7775362196708 388.3556220859651L803.7775362196708 448.99244519726756L789.4951185994669 448.99244519726756L789.4951185994669 392.34731554040013Q789.4951185994669 384.20241502354713 786.9109008717401 381.13365647187163Q784.3497565165824 378.06489792019613 778.0276524326794 378.06489792019613L778.0276524326794 378.06489792019613Q770.551879720327 378.06489792019613 763.0761070079748 381.54897717811343Q755.6003342956224 385.03305643603073 745.3096101298534 391.6781877358995L745.3096101298534 391.6781877358995L744.6404823253527 381.54897717811343Q754.100565078638 374.39623168172693 763.4222075965095 370.2430246193089Q772.720776741812 366.089817556891 781.8578322791316 366.089817556891ZM732.6884753346164 332.70264744956427L746.8093793468377 332.70264744956427L746.9708929548206 364.77463532045863Q746.9708929548206 370.2430246193089 746.5555722485788 375.0653594862276Q746.140251542337 379.88769435314623 745.3096101298534 383.53328721904643L745.3096101298534 383.53328721904643L746.8093793468377 386.02521145649723L746.8093793468377 448.99244519726756L732.6884753346164 448.99244519726756L732.6884753346164 332.70264744956427ZM867.4138977649418 366.089817556891L867.4138977649418 366.089817556891Q876.3894396942783 366.089817556891 882.6192502879053 368.5125216766348Q888.8490608815323 370.91215242380963 891.9870395509149 376.5651287032118Q895.1480915928662 382.2181049826141 895.1480915928662 392.00121495186534L895.1480915928662 392.00121495186534L895.1480915928662 448.99244519726756L884.0267260146136 448.99244519726756L881.8578289931288 431.38746192712915L880.8656739726623 429.564665494179L880.8656739726623 392.00121495186534Q880.8656739726623 384.525442239513 877.4508148324519 381.29517007985453Q874.0590290648106 378.06489792019613 864.4143593309732 378.06489792019613L864.4143593309732 378.06489792019613Q858.1153286196393 378.06489792019613 848.5629523760779 378.71095235212783Q839.0105761325167 379.3800801566285 829.6889336146451 380.2107215691121L829.6889336146451 380.2107215691121L828.3737513782128 369.7584837953602Q834.0267276576151 368.7432554023247 840.7410790751908 367.9126139898411Q847.4785038653356 367.0819725773575 854.4466623811702 366.5974317534087Q861.4378942695737 366.089817556891 867.4138977649418 366.089817556891ZM847.1324032768007 399.15396044825184L888.5029602929974 399.15396044825184L888.3414466850145 409.79078520255564L849.6243275142515 409.95229881053854Q843.8098376268663 410.1138124185215 841.5025003699675 413.02105736221404Q839.1720897404996 415.92830230590664 839.1720897404996 421.07366438879114L839.1720897404996 421.07366438879114L839.1720897404996 426.24209984424465Q839.1720897404996 432.54113055557855 842.1485548018991 435.44837549927115Q845.1480932358677 438.35562044296375 851.7932245357365 438.35562044296375L851.7932245357365 438.35562044296375Q856.4540457946721 438.35562044296375 862.3377557997642 436.62511750028955Q868.2445391774254 434.87154118504645 874.2205426727935 431.2259483191462Q880.1965461681616 427.557282080677 885.1803946430632 421.90430580127475L885.1803946430632 421.90430580127475L885.1803946430632 432.37961694759565Q883.3575982101129 434.7100275770635 879.9427390699027 437.778786128739Q876.5509533022614 440.8475446804145 871.8209119256187 443.75478962410705Q867.0677971764069 446.66203456779965 861.3456007792977 448.57712449102576Q855.6234043821885 450.4922144142518 848.9782730823197 450.4922144142518L848.9782730823197 450.4922144142518Q841.8255275859333 450.4922144142518 836.3340649145139 447.90799668652505Q830.8656756156636 445.3468523313673 827.7969170639881 440.2707103661898Q824.7050851397437 435.19456840101225 824.7050851397437 427.90338266921185L824.7050851397437 427.90338266921185L824.7050851397437 419.08935434785815Q824.7050851397437 409.62927159457274 830.6118685174047 404.3916160214123Q836.5186518950659 399.15396044825184 847.1324032768007 399.15396044825184L847.1324032768007 399.15396044825184ZM926.5509516592599 344.17011361635167L940.6718556714811 344.17011361635167L940.6718556714811 426.7266406681934Q940.6718556714811 432.54113055557855 943.1637799089319 435.03305479302935Q945.6557041463827 437.52497903048015 951.6317076417508 437.52497903048015L951.6317076417508 437.52497903048015L963.9298152210217 437.52497903048015L965.5910980459889 448.32331739276685Q962.9376602005552 448.99244519726756 959.4535809426379 449.50005939378525Q955.9464283121515 449.98460021773406 952.6238626622171 450.23840731599296Q949.3012970122829 450.4922144142518 947.3169869713499 450.4922144142518L947.3169869713499 450.4922144142518Q937.1877764135638 450.4922144142518 931.8578273501273 444.83923813484955Q926.5509516592599 439.1862618554473 926.5509516592599 428.5494371011435L926.5509516592599 428.5494371011435L926.5509516592599 344.17011361635167ZM927.8892072682613 368.097200970393L966.4217394584725 368.097200970393L966.4217394584725 379.2185665486456L911.9224334505211 379.2185665486456L911.9224334505211 368.9278423828766L927.8892072682613 368.097200970393ZM1077.0585609267735 334.36393027453147L1093.5098755684626 334.36393027453147Q1099.4858790638307 334.36393027453147 1099.4858790638307 340.50144737788247L1099.4858790638307 340.50144737788247L1104.3082139307492 448.99244519726756L1089.6796957220104 448.99244519726756L1085.5264886595926 346.5005242458195L1082.042409401675 346.5005242458195L1056.4540392226666 431.0413613385943Q1055.1388569862343 436.02520981349585 1050.1550085113327 436.02520981349585L1050.1550085113327 436.02520981349585L1037.026259519578 436.02520981349585Q1031.8808974366937 436.02520981349585 1030.3811282197094 431.0413613385943L1030.3811282197094 431.0413613385943L1004.7927580407008 346.5005242458195L1001.4701923907664 346.5005242458195L997.4784989363313 448.99244519726756L982.8730541001614 448.99244519726756L987.3492883785452 340.50144737788247Q987.6953889670801 334.36393027453147 993.5098788544653 334.36393027453147L993.5098788544653 334.36393027453147L1010.1227071041371 334.36393027453147Q1014.7604549905038 334.36393027453147 1016.2602242074881 339.34777874943296L1016.2602242074881 339.34777874943296L1037.6953873240789 409.2831710060379Q1039.0105695605112 413.11335085249004 1039.9335044632708 416.92045732637314Q1040.8564393660301 420.7506371728253 1042.0101079944795 424.74233062726034L1042.0101079944795 424.74233062726034L1045.0096464284481 424.74233062726034Q1046.1633150568975 420.7506371728253 1047.155470077364 416.92045732637314Q1048.1476250978305 413.11335085249004 1049.324367098849 408.96014379007204L1049.324367098849 408.96014379007204L1070.7595302154398 339.34777874943296Q1072.0747124518718 334.36393027453147 1077.0585609267735 334.36393027453147L1077.0585609267735 334.36393027453147ZM1162.614626412584 366.089817556891L1162.614626412584 366.089817556891Q1180.888737487223 366.089817556891 1189.1259314943518 372.73494885675973Q1197.3400521289118 379.3800801566285 1197.3400521289118 392.5088291483831L1197.3400521289118 392.5088291483831Q1197.5015657368947 403.30716751066984 1192.863817850528 409.37546449631384Q1188.2029965915924 415.4437614819579 1178.0737860338063 415.4437614819579L1178.0737860338063 415.4437614819579L1130.8887391302244 415.4437614819579L1130.8887391302244 404.46083613911924L1174.405119795337 404.46083613911924Q1179.8965824667564 404.46083613911924 1181.5578652917236 400.7229497829431Q1183.2191481166908 396.9850634267669 1183.2191481166908 392.5088291483831L1183.2191481166908 392.5088291483831Q1183.057634508708 384.7100292200649 1178.558326857755 381.3874635701305Q1174.0820925793712 378.06489792019613 1163.2837542170844 378.06489792019613L1163.2837542170844 378.06489792019613Q1154.4697258957308 378.06489792019613 1149.4166573031223 380.6260422753539Q1144.3405153379447 383.21026000308063 1142.2639118067357 389.6015842046905Q1140.1873082755267 395.9929084063004 1140.1873082755267 407.4603745730878L1140.1873082755267 407.4603745730878Q1140.1873082755267 420.42760995685944 1142.7715260032535 427.23425486471115Q1145.3326703584112 434.0408997725628 1150.9856466378135 436.5328240100136Q1156.6386229172158 439.0247482474644 1165.937192062518 439.0247482474644L1165.937192062518 439.0247482474644Q1172.420809754404 439.0247482474644 1180.1503895650153 438.44791393323965Q1187.8799693756264 437.87107961901495 1194.0174864789774 437.04043820653135L1194.0174864789774 437.04043820653135L1195.5172556959617 446.50052095981675Q1191.6870758495097 448.000290176801 1186.1263930603834 448.99244519726756Q1180.565710271257 449.98460021773406 1174.658926893596 450.4922144142518Q1168.7752168885038 450.97675523820055 1164.114395629568 450.97675523820055L1164.114395629568 450.97675523820055Q1150.15500522533 450.97675523820055 1141.687077492511 446.75432805807566Q1133.219149759692 442.5088275053817 1129.3197497955332 433.11796486980325Q1125.397276458805 423.75017560679385 1125.397276458805 408.2910159855714L1125.397276458805 408.2910159855714Q1125.397276458805 392.34731554040013 1129.3197497955332 383.1179665128046Q1133.219149759692 373.9116908577781 1141.433270394252 369.98921752105Q1149.6704644013812 366.089817556891 1162.614626412584 366.089817556891ZM1286.7262974611742 334.36393027453147L1302.0008701018448 334.36393027453147Q1303.9851801427778 334.36393027453147 1305.4849493597624 335.4483787852739Q1306.9847185767464 336.53282729601636 1307.4923327732643 338.35562372896646L1307.4923327732643 338.35562372896646L1344.3635821385083 448.99244519726756L1329.2505231058205 448.99244519726756L1299.508945864394 354.96845197863837Q1298.8398180598933 352.6380413491705 1298.1014701376857 350.23841060199567Q1297.340048842909 347.81570648225187 1296.6939944109774 345.6698828333359L1296.6939944109774 345.6698828333359L1292.0331731520416 345.6698828333359Q1291.3640453475412 347.81570648225187 1290.6949175430402 350.23841060199567Q1290.0488631111086 352.6380413491705 1289.218221698625 354.96845197863837L1289.218221698625 354.96845197863837L1259.4766444571987 448.99244519726756L1244.363585424511 448.99244519726756L1281.2348347897548 338.35562372896646Q1281.7424489862726 336.53282729601636 1283.219144830688 335.4483787852739Q1284.7189140476723 334.36393027453147 1286.7262974611742 334.36393027453147L1286.7262974611742 334.36393027453147ZM1265.129620736601 400.4922160572532L1323.2745196104524 400.4922160572532L1323.2745196104524 413.11335085249004L1265.129620736601 413.11335085249004L1265.129620736601 400.4922160572532ZM1405.3234324657767 366.089817556891L1405.3234324657767 366.089817556891Q1420.1134642824984 366.089817556891 1426.597081974384 376.9804494094536Q1433.0806996662698 387.84800788944733 1433.0806996662698 408.96014379007204L1433.0806996662698 408.96014379007204Q1433.0806996662698 424.58081701927745 1429.7581340163354 433.78709267430395Q1426.4355683664012 443.01644170189945 1419.6981435762566 447.0081351563345Q1412.9837921586807 450.97675523820055 1402.5084810123597 450.97675523820055L1402.5084810123597 450.97675523820055Q1394.52509410349 450.97675523820055 1386.8185876654475 448.8309315892846Q1379.0890078548362 446.66203456779965 1371.7747487504669 442.18580028941585L1371.7747487504669 442.18580028941585L1372.6053901629505 433.717872556597Q1380.4041900912687 435.86369620551295 1386.403266959206 437.27117193222125Q1392.3792704545738 438.70172103149855 1399.0244017544426 438.70172103149855L1399.0244017544426 438.70172103149855Q1406.1540738782603 438.70172103149855 1410.3995744309539 436.20979679404775Q1414.6450749836479 433.717872556597 1416.6293850245809 427.23425486471115Q1418.6136950655139 420.7506371728253 1418.6136950655139 408.96014379007204L1418.6136950655139 408.96014379007204Q1418.6136950655139 397.49267762328464 1416.790898632564 390.8475463234159Q1414.9681021996137 384.20241502354713 1411.0687022354548 381.29517007985453Q1407.1693022712957 378.387925136162 1400.6856845794098 378.387925136162L1400.6856845794098 378.387925136162Q1394.040553279541 378.387925136162 1387.5569355876553 381.54897717811343Q1381.0733178957694 384.7100292200649 1372.4438765549676 391.17057353938173L1372.4438765549676 391.17057353938173L1371.1056209459664 381.71049078609633Q1375.604928596919 376.8881559191777 1381.2348315037523 373.40407666126043Q1386.8878077831544 369.9199974033431 1393.1176183767814 368.004907480117Q1399.3474289704084 366.089817556891 1405.3234324657767 366.089817556891ZM1358.992100347247 368.097200970393L1370.6210801220175 368.097200970393L1372.0977759664327 384.8715428280478L1373.1130043594683 387.01736647696373L1373.1130043594683 438.86323463948145L1372.4438765549676 440.8475446804145Q1372.9284173789163 445.50836593935026 1373.0207108691923 449.82308660975116Q1373.1130043594683 454.137807280152 1373.1130043594683 458.96014214707066L1373.1130043594683 458.96014214707066L1373.1130043594683 482.37961530459427L1358.992100347247 482.37961530459427L1358.992100347247 368.097200970393ZM1501.6778363138735 366.089817556891L1501.6778363138735 366.089817556891Q1516.4678681305952 366.089817556891 1522.9514858224813 376.9804494094536Q1529.435103514367 387.84800788944733 1529.435103514367 408.96014379007204L1529.435103514367 408.96014379007204Q1529.435103514367 424.58081701927745 1526.1125378644326 433.78709267430395Q1522.7899722144982 443.01644170189945 1516.0525474243534 447.0081351563345Q1509.3381960067777 450.97675523820055 1498.862884860457 450.97675523820055L1498.862884860457 450.97675523820055Q1490.8794979515867 450.97675523820055 1483.1729915135445 448.8309315892846Q1475.4434117029332 446.66203456779965 1468.1291525985637 442.18580028941585L1468.1291525985637 442.18580028941585L1468.9597940110473 433.717872556597Q1476.7585939393657 435.86369620551295 1482.7576708073027 437.27117193222125Q1488.7336743026708 438.70172103149855 1495.3788056025394 438.70172103149855L1495.3788056025394 438.70172103149855Q1502.5084777263571 438.70172103149855 1506.7539782790511 436.20979679404775Q1510.999478831745 433.717872556597 1512.983788872678 427.23425486471115Q1514.968098913611 420.7506371728253 1514.968098913611 408.96014379007204L1514.968098913611 408.96014379007204Q1514.968098913611 397.49267762328464 1513.145302480661 390.8475463234159Q1511.3225060477107 384.20241502354713 1507.4231060835516 381.29517007985453Q1503.5237061193927 378.387925136162 1497.0400884275068 378.387925136162L1497.0400884275068 378.387925136162Q1490.394957127638 378.387925136162 1483.911339435752 381.54897717811343Q1477.4277217438664 384.7100292200649 1468.7982804030646 391.17057353938173L1468.7982804030646 391.17057353938173L1467.4600247940632 381.71049078609633Q1471.959332445016 376.8881559191777 1477.5892353518493 373.40407666126043Q1483.2422116312516 369.9199974033431 1489.4720222248784 368.004907480117Q1495.7018328185054 366.089817556891 1501.6778363138735 366.089817556891ZM1455.346504195344 368.097200970393L1466.9754839701143 368.097200970393L1468.4521798145297 384.8715428280478L1469.467408207565 387.01736647696373L1469.467408207565 438.86323463948145L1468.7982804030646 440.8475446804145Q1469.282821227013 445.50836593935026 1469.3751147172893 449.82308660975116Q1469.467408207565 454.137807280152 1469.467408207565 458.96014214707066L1469.467408207565 458.96014214707066L1469.467408207565 482.37961530459427L1455.346504195344 482.37961530459427L1455.346504195344 368.097200970393Z " fill="#8aaae5" transform="matrix(0.5721066876414347,0,0,0.5721066876414347,0,66.93540746920485)"/></g></svg>