<?xml version="1.0" encoding="UTF-8"?>
<svg version="1.1" xmlns="http://www.w3.org/2000/svg" width="32" height="32">
<path d="M0 0 C10.56 0 21.12 0 32 0 C32 10.56 32 21.12 32 32 C21.44 32 10.88 32 0 32 C0 21.44 0 10.88 0 0 Z " fill="#FBE2CB" transform="translate(0,0)"/>
<path d="M0 0 C2.84147609 1.36655736 3.85785107 2.48297501 6 5 C6.603144 8.81991203 6.70873257 10.92149391 4.5625 14.1875 C4.046875 14.785625 3.53125 15.38375 3 16 C2.67 17.32 2.34 18.64 2 20 C-1.3 19.34 -4.6 18.68 -8 18 C-8 17.34 -8 16.68 -8 16 C-8.928125 15.8453125 -8.928125 15.8453125 -9.875 15.6875 C-12 15 -12 15 -14 12 C-14.5 8.625 -14.5 8.625 -14 5 C-9.9948399 0.29393688 -6.15138093 -1.50122987 0 0 Z " fill="#9C6B62" transform="translate(20,6)"/>
<path d="M0 0 C1.051875 0.185625 2.10375 0.37125 3.1875 0.5625 C6.57119882 0.95079331 8.76425888 0.88247485 12 0 C12.33 1.65 12.66 3.3 13 5 C12.01 5.33 11.02 5.66 10 6 C10 7.32 10 8.64 10 10 C9.05125 9.814375 8.1025 9.62875 7.125 9.4375 C4.10131207 8.71313368 4.10131207 8.71313368 2 10 C-1.07692308 4.58461538 -1.07692308 4.58461538 -0.6875 1.625 C-0.460625 1.08875 -0.23375 0.5525 0 0 Z " fill="#7C5A51" transform="translate(10,11)"/>
<path d="M0 0 C3 2 3 2 3.6875 4.625 C3.790625 5.40875 3.89375 6.1925 4 7 C3.01 6.67 2.02 6.34 1 6 C0.236875 6.165 -0.52625 6.33 -1.3125 6.5 C-4.45953828 7.08549549 -6.87144817 6.55618699 -10 6 C-10.99 6.495 -10.99 6.495 -12 7 C-11.39816251 4.97954558 -10.72693904 2.97888961 -10 1 C-6.87293041 -0.5635348 -3.42017557 -0.39958487 0 0 Z " fill="#AA8B6F" transform="translate(20,6)"/>
<path d="M0 0 C0.12890625 0.57363281 0.2578125 1.14726562 0.390625 1.73828125 C1.3856513 5.43135964 2.80989202 8.85171978 5 12 C7.6147267 13.12815365 7.6147267 13.12815365 10 13 C10 13.33 10 13.66 10 14 C8.02 14.33 6.04 14.66 4 15 C4 14.34 4 13.68 4 13 C3.071875 12.8453125 3.071875 12.8453125 2.125 12.6875 C0 12 0 12 -2 9 C-2.25 5.4375 -2.25 5.4375 -2 2 C-1.34 1.34 -0.68 0.68 0 0 Z " fill="#A4886C" transform="translate(8,9)"/>
<path d="M0 0 C2.64 0 5.28 0 8 0 C8 1.32 8 2.64 8 4 C7.05125 3.814375 6.1025 3.62875 5.125 3.4375 C2.10131207 2.71313368 2.10131207 2.71313368 0 4 C0 2.68 0 1.36 0 0 Z " fill="#333332" transform="translate(12,17)"/>
<path d="M0 0 C0 1.32 0 2.64 0 4 C-1.98 4 -3.96 4 -6 4 C-6 2.68 -6 1.36 -6 0 C-2.25 -1.125 -2.25 -1.125 0 0 Z " fill="#3F3B38" transform="translate(23,12)"/>
<path d="M0 0 C-2.35277269 2.72426311 -4.62496331 3.8141763 -8 5 C-7.625 3.0625 -7.625 3.0625 -7 1 C-4.53721199 -0.231394 -2.7204945 -0.07159196 0 0 Z " fill="#F4C69C" transform="translate(16,8)"/>
</svg>
